<?xml version="1.0" encoding="UTF-8"?>
<svg xmlns="http://www.w3.org/2000/svg" version="1.1" viewBox="0 0 92 28">
  <defs>
    <style>
      .cls-1 {
        fill: #fff;
      }

      .cls-2 {
        fill: #a6a6a6;
      }
    </style>
  </defs>
  <!-- Generator: Adobe Illustrator 28.7.5, SVG Export Plug-In . SVG Version: 1.2.0 Build 176)  -->
  <g>
    <g id="Layer_1">
      <g>
        <path class="cls-2" d="M88.32,27.5H3.63c-1.76,0-3.19-1.44-3.19-3.19V3.69C.44,1.93,1.87.5,3.63.5h84.69c1.76,0,3.24,1.43,3.24,3.19v20.62c0,1.76-1.48,3.19-3.24,3.19h0Z"/>
        <path d="M90.91,24.31c0,1.43-1.16,2.59-2.59,2.59H3.63c-1.43,0-2.59-1.16-2.59-2.59V3.69c0-1.43,1.16-2.59,2.59-2.59h84.69c1.43,0,2.59,1.16,2.59,2.59v20.62h0Z"/>
        <g>
          <path class="cls-1" d="M20.77,13.85c-.02-2.18,1.78-3.23,1.86-3.28-1.02-1.49-2.6-1.69-3.16-1.71-1.33-.14-2.62.79-3.29.79s-1.73-.78-2.85-.76c-1.44.02-2.8.86-3.54,2.16-1.53,2.65-.39,6.54,1.08,8.68.73,1.05,1.59,2.22,2.71,2.18,1.1-.05,1.51-.7,2.83-.7s1.7.7,2.84.67c1.18-.02,1.92-1.05,2.63-2.11.85-1.2,1.19-2.38,1.2-2.45-.03,0-2.29-.87-2.31-3.48Z"/>
          <path class="cls-1" d="M18.61,7.46c.59-.74.99-1.74.88-2.76-.85.04-1.92.59-2.54,1.31-.54.64-1.03,1.68-.9,2.66.96.07,1.94-.48,2.56-1.21Z"/>
        </g>
        <g>
          <path class="cls-1" d="M36.65,21.77h-1.53l-.84-2.64h-2.92l-.8,2.64h-1.49l2.89-8.98h1.79l2.91,8.98ZM34.02,18.02l-.76-2.35c-.08-.24-.23-.8-.45-1.69h-.03c-.09.38-.23.95-.43,1.69l-.75,2.35h2.41Z"/>
          <path class="cls-1" d="M44.08,18.45c0,1.1-.3,1.97-.89,2.61-.53.57-1.2.85-1.99.85-.85,0-1.47-.31-1.84-.92h-.03v3.41h-1.44v-6.98c0-.69-.02-1.4-.05-2.13h1.27l.08,1.03h.03c.48-.77,1.21-1.16,2.19-1.16.76,0,1.4.3,1.91.91.51.6.77,1.4.77,2.39ZM42.62,18.5c0-.63-.14-1.15-.43-1.56-.31-.43-.73-.64-1.25-.64-.36,0-.68.12-.97.35-.29.24-.48.54-.57.93-.04.18-.07.32-.07.44v1.08c0,.47.14.87.43,1.19s.66.49,1.13.49c.54,0,.96-.21,1.27-.63.3-.42.45-.97.45-1.65Z"/>
          <path class="cls-1" d="M51.53,18.45c0,1.1-.3,1.97-.89,2.61-.53.57-1.19.85-1.99.85-.85,0-1.47-.31-1.84-.92h-.03v3.41h-1.44v-6.98c0-.69-.02-1.4-.05-2.13h1.27l.08,1.03h.03c.48-.77,1.21-1.16,2.19-1.16.76,0,1.4.3,1.91.91.51.6.77,1.4.77,2.39ZM50.07,18.5c0-.63-.14-1.15-.43-1.56-.31-.43-.73-.64-1.25-.64-.36,0-.68.12-.97.35-.29.24-.48.54-.57.93-.04.18-.07.32-.07.44v1.08c0,.47.14.87.43,1.19.29.32.66.49,1.13.49.54,0,.96-.21,1.27-.63.3-.42.45-.97.45-1.65Z"/>
          <path class="cls-1" d="M59.86,19.25c0,.76-.27,1.39-.8,1.87-.59.52-1.4.79-2.45.79-.97,0-1.74-.19-2.33-.56l.33-1.2c.63.38,1.33.57,2.08.57.54,0,.96-.12,1.27-.37.3-.24.45-.57.45-.98,0-.36-.12-.67-.37-.92-.25-.25-.66-.48-1.24-.69-1.57-.59-2.36-1.45-2.36-2.58,0-.74.28-1.34.83-1.82.55-.47,1.28-.71,2.2-.71.82,0,1.5.14,2.04.43l-.36,1.17c-.51-.28-1.08-.41-1.72-.41-.51,0-.9.12-1.19.37-.24.22-.36.49-.36.81,0,.36.14.65.41.88.24.21.67.44,1.31.69.77.31,1.34.67,1.71,1.09.36.42.55.94.55,1.56Z"/>
          <path class="cls-1" d="M64.62,16.37h-1.59v3.14c0,.8.28,1.2.84,1.2.26,0,.47-.02.64-.07l.04,1.09c-.28.11-.66.16-1.12.16-.57,0-1.01-.17-1.33-.52-.32-.35-.48-.93-.48-1.75v-3.26h-.95v-1.08h.95v-1.19l1.41-.43v1.61h1.59v1.08Z"/>
          <path class="cls-1" d="M71.78,18.47c0,1-.28,1.81-.85,2.45-.6.66-1.39.99-2.37.99s-1.71-.32-2.27-.95-.85-1.43-.85-2.39.29-1.83.87-2.47c.58-.64,1.37-.96,2.35-.96s1.72.32,2.29.95c.55.61.83,1.4.83,2.37ZM70.29,18.52c0-.6-.13-1.11-.39-1.54-.3-.52-.73-.77-1.29-.77s-1.02.26-1.32.77c-.26.43-.39.95-.39,1.56s.13,1.11.39,1.54c.31.52.75.77,1.31.77s.98-.26,1.29-.79c.27-.44.4-.95.4-1.55Z"/>
          <path class="cls-1" d="M76.46,16.55c-.14-.03-.29-.04-.45-.04-.51,0-.9.19-1.17.57-.24.34-.36.76-.36,1.28v3.4h-1.44v-4.44c.01-.75,0-1.43-.04-2.04h1.25l.05,1.24h.04c.15-.43.39-.77.72-1.03.32-.23.67-.35,1.04-.35.13,0,.25,0,.36.03v1.37Z"/>
          <path class="cls-1" d="M82.89,18.22c0,.26-.02.48-.05.65h-4.32c.02.64.23,1.13.63,1.47.36.3.83.45,1.41.45.64,0,1.22-.1,1.75-.31l.23,1c-.61.27-1.34.4-2.17.4-1,0-1.79-.3-2.37-.89-.57-.59-.86-1.38-.86-2.38s.27-1.79.8-2.44c.56-.69,1.31-1.04,2.26-1.04s1.64.35,2.12,1.04c.38.55.57,1.23.57,2.04ZM81.52,17.85c0-.43-.08-.8-.28-1.11-.25-.4-.63-.6-1.15-.6-.47,0-.85.2-1.15.59-.24.31-.38.68-.43,1.12h3Z"/>
        </g>
        <g>
          <path class="cls-1" d="M33.55,7.26c0,.79-.24,1.39-.71,1.79-.44.37-1.07.56-1.88.56-.4,0-.75-.02-1.03-.05v-4.34c.38-.06.78-.09,1.22-.09.77,0,1.36.17,1.75.5.44.38.66.92.66,1.63ZM32.8,7.28c0-.52-.14-.91-.41-1.19-.27-.27-.67-.41-1.2-.41-.22,0-.41.01-.57.05v3.3c.09.01.25.02.48.02.54,0,.96-.15,1.25-.45s.44-.74.44-1.32Z"/>
          <path class="cls-1" d="M37.5,7.95c0,.49-.14.89-.42,1.2-.29.32-.68.48-1.17.48s-.84-.15-1.12-.47c-.28-.31-.42-.7-.42-1.17s.14-.9.43-1.21.67-.47,1.16-.47.84.15,1.13.46c.27.3.41.69.41,1.17ZM36.77,7.97c0-.29-.06-.55-.19-.76-.15-.25-.36-.38-.63-.38s-.5.13-.65.38c-.13.21-.19.47-.19.77s.06.55.19.76c.15.25.37.38.64.38s.48-.13.63-.39c.13-.21.2-.47.2-.76Z"/>
          <path class="cls-1" d="M42.8,6.39l-1,3.18h-.65l-.41-1.38c-.1-.34-.19-.69-.26-1.03h-.01c-.06.35-.15.69-.26,1.03l-.44,1.38h-.66l-.94-3.18h.73l.36,1.51c.09.36.16.7.22,1.02h.01c.05-.27.14-.6.26-1.01l.45-1.52h.58l.43,1.49c.1.36.19.71.26,1.05h.02c.05-.33.12-.68.22-1.05l.39-1.49h.69Z"/>
          <path class="cls-1" d="M46.47,9.57h-.71v-1.82c0-.56-.21-.84-.64-.84-.21,0-.38.08-.51.23-.13.15-.2.34-.2.55v1.89h-.71v-2.27c0-.28,0-.58-.03-.91h.62l.03.5h.02c.08-.15.21-.28.37-.38.19-.12.41-.18.64-.18.3,0,.54.1.74.29.24.24.37.59.37,1.05v1.91Z"/>
          <path class="cls-1" d="M48.42,9.57h-.71v-4.64h.71v4.64Z"/>
          <path class="cls-1" d="M52.59,7.95c0,.49-.14.89-.42,1.2-.29.32-.68.48-1.17.48s-.84-.15-1.12-.47c-.28-.31-.42-.7-.42-1.17s.14-.9.43-1.21.67-.47,1.15-.47.84.15,1.13.46c.27.3.41.69.41,1.17ZM51.85,7.97c0-.29-.06-.55-.19-.76-.15-.25-.36-.38-.63-.38s-.5.13-.65.38c-.13.21-.19.47-.19.77s.06.55.19.76c.15.25.37.38.64.38s.48-.13.63-.39c.13-.21.2-.47.2-.76Z"/>
          <path class="cls-1" d="M56.01,9.57h-.64l-.05-.37h-.02c-.22.29-.53.44-.93.44-.3,0-.54-.1-.73-.29-.17-.17-.25-.39-.25-.65,0-.39.16-.69.49-.89.33-.21.78-.31,1.37-.3v-.06c0-.42-.22-.63-.66-.63-.31,0-.59.08-.83.24l-.14-.46c.3-.18.66-.27,1.09-.27.83,0,1.25.44,1.25,1.32v1.17c0,.32.02.57.05.76ZM55.28,8.47v-.49c-.78-.01-1.17.2-1.17.64,0,.17.04.29.14.37.09.08.21.12.35.12.16,0,.3-.05.43-.15.13-.1.21-.22.25-.38,0-.03.01-.08.01-.12Z"/>
          <path class="cls-1" d="M60.03,9.57h-.63l-.03-.51h-.02c-.2.39-.54.58-1.02.58-.38,0-.7-.15-.96-.45s-.38-.69-.38-1.17c0-.52.14-.93.41-1.25.27-.3.59-.45.98-.45.43,0,.73.14.9.43h.01v-1.83h.71v3.78c0,.31,0,.6.02.86ZM59.3,8.23v-.53c0-.09,0-.17-.02-.22-.04-.17-.13-.31-.26-.43-.13-.12-.29-.17-.47-.17-.26,0-.47.1-.62.31-.15.21-.23.48-.23.81s.07.57.22.77c.15.21.36.31.62.31.23,0,.42-.09.56-.26.14-.16.2-.36.2-.58Z"/>
          <path class="cls-1" d="M66.08,7.95c0,.49-.14.89-.42,1.2-.29.32-.68.48-1.17.48s-.84-.15-1.12-.47c-.28-.31-.42-.7-.42-1.17s.14-.9.43-1.21.67-.47,1.16-.47.84.15,1.13.46c.27.3.41.69.41,1.17ZM65.35,7.97c0-.29-.06-.55-.19-.76-.15-.25-.36-.38-.64-.38s-.5.13-.65.38c-.13.21-.19.47-.19.77s.06.55.19.76c.15.25.37.38.64.38s.48-.13.64-.39c.13-.21.2-.47.2-.76Z"/>
          <path class="cls-1" d="M69.88,9.57h-.71v-1.82c0-.56-.21-.84-.64-.84-.21,0-.38.08-.51.23s-.2.34-.2.55v1.89h-.71v-2.27c0-.28,0-.58-.02-.91h.62l.03.5h.02c.08-.15.21-.28.37-.38.19-.12.41-.18.64-.18.3,0,.54.1.74.29.25.24.37.59.37,1.05v1.91Z"/>
          <path class="cls-1" d="M74.64,6.92h-.78v1.55c0,.39.14.59.41.59.13,0,.23-.01.32-.03l.02.54c-.14.05-.32.08-.55.08-.28,0-.5-.09-.65-.26-.16-.17-.24-.46-.24-.86v-1.6h-.47v-.53h.47v-.58l.69-.21v.79h.78v.53h0Z"/>
          <path class="cls-1" d="M78.39,9.57h-.71v-1.81c0-.57-.21-.86-.64-.86-.33,0-.55.17-.68.5-.02.07-.03.15-.03.25v1.91h-.71v-4.64h.71v1.92h.01c.22-.35.54-.52.96-.52.29,0,.54.1.73.29.24.24.36.6.36,1.07v1.89Z"/>
          <path class="cls-1" d="M82.25,7.83c0,.13,0,.23-.03.32h-2.12c0,.31.11.55.31.72.18.15.41.22.69.22.31,0,.6-.05.86-.15l.11.49c-.3.13-.66.2-1.07.2-.49,0-.88-.15-1.16-.44-.28-.29-.42-.68-.42-1.17s.13-.88.39-1.2c.27-.34.64-.51,1.11-.51s.81.17,1.04.51c.19.27.28.6.28,1ZM81.58,7.64c0-.21-.04-.39-.14-.54-.12-.2-.31-.29-.56-.29-.23,0-.42.1-.56.29-.12.15-.19.34-.21.55h1.47Z"/>
        </g>
      </g>
    </g>
  </g>
</svg>