<?xml version="1.0" encoding="UTF-8"?>
<svg xmlns="http://www.w3.org/2000/svg" version="1.1" viewBox="0 0 28 24">
  <defs>
    <style>
      .cls-1 {
        fill: #283a97;
        fill-rule: evenodd;
      }
    </style>
  </defs>
  <!-- Generator: Adobe Illustrator 28.7.5, SVG Export Plug-In . SVG Version: 1.2.0 Build 176)  -->
  <g>
    <g id="Layer_1">
      <path class="cls-1" d="M9.69,0h8.62c.66,0,1.25.27,1.68.7.43.43.7,1.03.7,1.68v19.24c0,.66-.27,1.25-.7,1.68-.43.43-1.03.7-1.68.7h-8.62c-.66,0-1.25-.27-1.68-.7-.43-.43-.7-1.03-.7-1.68V2.38c0-.66.27-1.25.7-1.68.43-.43,1.03-.7,1.68-.7h0ZM2.84,8.67c.4-.44-.26-1.05-.67-.62h0c-2.32,2.52-2.33,5.35-.04,7.89h0s0,0,0,0c.42.44,1.07-.19.67-.62-2-2.23-1.95-4.49,0-6.63.02-.01.03-.02.04-.03h0ZM25.16,8.67c-.4-.44.26-1.05.67-.62h0c2.32,2.52,2.34,5.35.05,7.89h0s0,0,0,0c-.42.44-1.07-.19-.67-.62,2-2.23,1.95-4.49,0-6.63-.02,0-.03-.02-.04-.03h0ZM23.2,10.22c-.37-.47.33-1.02.7-.58h0c1.26,1.49,1.32,3.24.12,4.78-.36.48-1.09-.08-.72-.56h0c.74-.96.96-2.06.23-3.11-.11-.15-.22-.32-.34-.54h0ZM4.79,10.22c.37-.47-.33-1.02-.7-.58h0c-1.26,1.49-1.32,3.24-.12,4.78.36.48,1.09-.08.72-.56h0c-.74-.96-.96-2.06-.23-3.11.11-.15.22-.32.34-.54h0ZM14,21.41c.54,0,.98.44.98.98s-.44.98-.98.98-.98-.44-.98-.98.44-.98.98-.98h0ZM7.99,20.66h12.01V2.99H7.99v17.67h0Z"/>
    </g>
  </g>
</svg>