<?xml version="1.0" encoding="UTF-8"?>
<svg xmlns="http://www.w3.org/2000/svg" version="1.1" viewBox="0 0 305 12">
  <defs>
    <style>
      .cls-1 {
        fill: #f47b20;
      }

      .cls-2 {
        opacity: .2;
      }

      .cls-3 {
        fill: none;
        stroke: #f47b20;
        stroke-miterlimit: 10;
      }
    </style>
  </defs>
  <!-- Generator: Adobe Illustrator 28.7.5, SVG Export Plug-In . SVG Version: 1.2.0 Build 176)  -->
  <g>
    <g id="Layer_1">
      <g class="cls-2">
        <line class="cls-3" x1="137.35" y1="6" y2="6"/>
        <line class="cls-3" x1="305" y1="6" x2="167.65" y2="6"/>
        <g>
          <path class="cls-1" d="M152.46,11.77c-.22-3.81-2.37-5.56-6.03-5.72.01-.03.03-.07.04-.1.28-.04.56-.07.83-.13.5-.1,1-.21,1.49-.34,2.2-.6,3.14-2.24,3.56-4.32.03-.16.06-.32.08-.48.02-.14.03-.29.1-.44.02.08.04.16.06.23.1.5.16,1.01.29,1.5.58,2.23,2.13,3.37,4.32,3.76.45.08.9.15,1.36.28-.29.04-.59.07-.87.13-.58.13-1.16.26-1.72.43-1.45.44-2.39,1.43-2.88,2.83-.26.74-.41,1.52-.63,2.37Z"/>
          <path class="cls-1" d="M142.1,9.08c-.12-2.03-1.26-2.97-3.21-3.05,0-.02.01-.04.02-.06.15-.02.3-.04.44-.07.27-.06.53-.11.8-.18,1.17-.32,1.68-1.2,1.9-2.3.02-.08.03-.17.04-.26,0-.08.02-.15.05-.24.01.04.02.08.03.12.05.27.09.54.16.8.31,1.19,1.14,1.8,2.31,2,.24.04.48.08.72.15-.16.02-.31.04-.47.07-.31.07-.62.14-.92.23-.77.24-1.28.76-1.54,1.51-.14.4-.22.81-.34,1.27Z"/>
          <path class="cls-1" d="M162.85,9.08c-.12-2.03-1.26-2.97-3.21-3.05,0-.02.01-.04.02-.06.15-.02.3-.04.44-.07.27-.06.53-.11.8-.18,1.17-.32,1.68-1.2,1.9-2.3.02-.08.03-.17.04-.26,0-.08.02-.15.05-.24.01.04.02.08.03.12.05.27.09.54.16.8.31,1.19,1.14,1.8,2.31,2,.24.04.48.08.72.15-.16.02-.31.04-.47.07-.31.07-.62.14-.92.23-.77.24-1.28.76-1.54,1.51-.14.4-.22.81-.34,1.27Z"/>
        </g>
      </g>
    </g>
  </g>
</svg>