<?xml version="1.0" encoding="UTF-8"?>
<svg xmlns="http://www.w3.org/2000/svg" version="1.1" viewBox="0 0 92 28">
  <defs>
    <style>
      .cls-1 {
        fill: #f6b60b;
      }

      .cls-2 {
        fill: #a2a2a1;
      }

      .cls-3, .cls-4 {
        fill: #fff;
      }

      .cls-5 {
        fill: #eb3131;
      }

      .cls-6 {
        fill: #5778c5;
      }

      .cls-7 {
        fill: #100f0d;
      }

      .cls-4 {
        stroke: #fff;
        stroke-miterlimit: 10;
        stroke-width: .13px;
      }

      .cls-8 {
        fill: #3bad49;
      }
    </style>
  </defs>
  <!-- Generator: Adobe Illustrator 28.7.5, SVG Export Plug-In . SVG Version: 1.2.0 Build 176)  -->
  <g>
    <g id="Layer_1">
      <g>
        <path id="path11" class="cls-7" d="M88.19,27.5H3.81c-1.86,0-3.38-1.52-3.38-3.38V3.88C.44,2.02,1.96.5,3.81.5h84.37c1.86,0,3.38,1.52,3.38,3.38v20.25c0,1.86-1.52,3.38-3.38,3.38"/>
        <path id="path13" class="cls-2" d="M88.19.5H3.81C1.96.5.44,2.02.44,3.88v20.25c0,1.86,1.52,3.38,3.38,3.38h84.37c1.86,0,3.38-1.52,3.38-3.38V3.88c0-1.86-1.52-3.38-3.38-3.37ZM88.19,1.04c1.56,0,2.84,1.27,2.84,2.84v20.25c0,1.56-1.27,2.84-2.84,2.84H3.81c-1.56,0-2.83-1.27-2.83-2.84V3.88c0-1.56,1.27-2.84,2.83-2.84h84.37"/>
        <path id="path35" class="cls-3" d="M72.62,20.75h1.26v-8.44h-1.26v8.44ZM83.96,15.35l-1.44,3.66h-.04l-1.5-3.66h-1.36l2.25,5.11-1.28,2.84h1.31l3.46-7.96h-1.4ZM76.82,19.79c-.41,0-.99-.21-.99-.72,0-.65.72-.9,1.34-.9.55,0,.81.12,1.15.28-.1.78-.77,1.34-1.5,1.34h0ZM76.97,15.17c-.91,0-1.86.4-2.25,1.29l1.12.47c.24-.47.68-.62,1.15-.62.65,0,1.31.39,1.32,1.09v.09c-.23-.13-.72-.33-1.31-.33-1.21,0-2.43.66-2.43,1.9,0,1.13.99,1.86,2.1,1.86.85,0,1.31-.38,1.61-.83h.04v.65h1.22v-3.24c0-1.5-1.12-2.33-2.56-2.33h0ZM69.19,16.38h-1.79v-2.89h1.79c.94,0,1.48.78,1.48,1.45s-.53,1.45-1.48,1.45ZM69.16,12.31h-3.02v8.44h1.26v-3.2h1.76c1.4,0,2.77-1.01,2.77-2.62s-1.37-2.62-2.77-2.62h0ZM52.7,19.79c-.87,0-1.6-.73-1.6-1.73s.73-1.75,1.6-1.75,1.53.74,1.53,1.75-.67,1.73-1.53,1.73ZM54.15,15.82h-.04c-.28-.34-.83-.64-1.51-.64-1.44,0-2.75,1.26-2.75,2.88s1.32,2.86,2.75,2.86c.68,0,1.23-.3,1.51-.65h.04v.41c0,1.1-.59,1.69-1.53,1.69-.77,0-1.25-.55-1.45-1.02l-1.1.46c.32.76,1.15,1.7,2.54,1.7,1.48,0,2.73-.87,2.73-2.99v-5.15h-1.2v.47ZM56.21,20.75h1.26v-8.44h-1.26v8.44ZM59.33,17.97c-.03-1.11.86-1.67,1.5-1.67.5,0,.92.25,1.07.61l-2.57,1.07ZM63.25,17.01c-.24-.64-.97-1.83-2.46-1.83s-2.71,1.16-2.71,2.87c0,1.61,1.22,2.87,2.85,2.87,1.32,0,2.08-.8,2.39-1.27l-.98-.65c-.33.48-.77.79-1.41.79s-1.1-.29-1.39-.87l3.84-1.59-.13-.33ZM32.66,16.06v1.22h2.91c-.09.69-.32,1.19-.66,1.53-.42.42-1.09.89-2.25.89-1.79,0-3.2-1.45-3.2-3.24s1.4-3.24,3.2-3.24c.97,0,1.67.38,2.2.87l.86-.86c-.73-.7-1.7-1.23-3.06-1.23-2.46,0-4.52,2-4.52,4.46s2.07,4.46,4.52,4.46c1.33,0,2.33-.44,3.11-1.25.8-.8,1.05-1.94,1.05-2.85,0-.28-.02-.54-.07-.76h-4.1ZM40.14,19.79c-.87,0-1.62-.72-1.62-1.74s.75-1.74,1.62-1.74,1.62.71,1.62,1.74-.75,1.74-1.62,1.74ZM40.14,15.18c-1.59,0-2.88,1.21-2.88,2.87s1.29,2.87,2.88,2.87,2.88-1.22,2.88-2.87-1.29-2.87-2.88-2.87ZM46.43,19.79c-.87,0-1.62-.72-1.62-1.74s.75-1.74,1.62-1.74,1.62.71,1.62,1.74-.75,1.74-1.62,1.74ZM46.43,15.18c-1.59,0-2.88,1.21-2.88,2.87s1.29,2.87,2.88,2.87,2.88-1.22,2.88-2.87-1.29-2.87-2.88-2.87"/>
        <path id="path37" class="cls-5" d="M14.42,13.61l-7.19,7.63s0,0,0,0c.22.83.98,1.44,1.87,1.44.36,0,.7-.1.98-.27h.02s8.09-4.68,8.09-4.68l-3.79-4.12"/>
        <path id="path39" class="cls-1" d="M21.69,12.31h0s-3.49-2.03-3.49-2.03l-3.93,3.5,3.95,3.95,3.47-2c.61-.33,1.02-.97,1.02-1.71s-.41-1.37-1.01-1.7"/>
        <path id="path41" class="cls-6" d="M7.23,6.76c-.04.16-.07.33-.07.5v13.48c0,.17.02.34.07.5l7.43-7.43-7.43-7.04"/>
        <path id="path43" class="cls-8" d="M14.47,14l3.72-3.72-8.08-4.68c-.29-.18-.64-.28-1-.28-.9,0-1.66.61-1.88,1.44,0,0,0,0,0,0l7.24,7.24"/>
        <path id="path33" class="cls-4" d="M32.43,7.1h-1.97v.49h1.48c-.04.4-.2.71-.47.94-.27.23-.61.34-1.01.34-.44,0-.82-.15-1.12-.46-.3-.31-.45-.7-.45-1.16s.15-.85.45-1.16c.31-.31.68-.46,1.12-.46.23,0,.44.04.64.12.2.09.36.2.48.36l.37-.37c-.17-.19-.38-.34-.65-.45-.27-.11-.55-.16-.85-.16-.59,0-1.09.2-1.5.61-.41.41-.61.91-.61,1.51s.2,1.1.61,1.51c.41.41.91.61,1.5.61.62,0,1.11-.2,1.49-.6.33-.34.51-.79.51-1.36,0-.1-.01-.2-.03-.31h0ZM33.19,5.21v4.06h2.37v-.5h-1.85v-1.29h1.67v-.49h-1.67v-1.29h1.85v-.5h-2.37ZM38.89,5.71v-.5h-2.79v.5h1.13v3.56h.52v-3.56h1.13ZM41.42,5.21h-.52v4.06h.52v-4.06ZM44.86,5.71v-.5h-2.79v.5h1.13v3.56h.52v-3.56h1.13ZM50.13,5.74c-.4-.41-.9-.62-1.49-.62s-1.08.2-1.49.61c-.4.4-.6.91-.6,1.51s.2,1.11.6,1.51c.4.41.9.61,1.49.61s1.08-.2,1.49-.61c.4-.4.6-.91.6-1.51s-.2-1.1-.6-1.5ZM47.53,6.08c.3-.31.67-.46,1.11-.46s.81.15,1.11.46c.3.3.45.69.45,1.16s-.15.86-.45,1.16c-.3.31-.66.46-1.11.46s-.81-.15-1.11-.46c-.29-.31-.44-.69-.44-1.16s.15-.86.44-1.16ZM51.97,6.74l-.02-.78h.02l2.07,3.31h.55v-4.06h-.52v2.38l.02.78h-.02l-1.97-3.16h-.64v4.06h.52v-2.53Z"/>
      </g>
    </g>
  </g>
</svg>