<?xml version="1.0" encoding="UTF-8"?>
<svg xmlns="http://www.w3.org/2000/svg" version="1.1" viewBox="0 0 20 20">
  <defs>
    <style>
      .cls-1 {
        fill: #fff;
      }

      .cls-2 {
        fill: #404040;
      }
    </style>
  </defs>
  <!-- Generator: Adobe Illustrator 28.7.5, SVG Export Plug-In . SVG Version: 1.2.0 Build 176)  -->
  <g>
    <g id="Layer_1">
      <g>
        <circle class="cls-1" cx="10" cy="10" r="10"/>
        <path class="cls-2" d="M7.95,5c-1.63,0-2.95,1.33-2.95,2.95v4.09c0,1.63,1.33,2.95,2.95,2.95h4.09c1.63,0,2.95-1.33,2.95-2.95v-4.09c0-1.63-1.33-2.95-2.95-2.95h-4.09ZM7.95,5.45h4.09c1.38,0,2.5,1.12,2.5,2.5v4.09c0,1.38-1.12,2.5-2.5,2.5h-4.09c-1.38,0-2.5-1.12-2.5-2.5v-4.09c0-1.38,1.12-2.5,2.5-2.5ZM12.73,6.82c-.25,0-.45.2-.45.45s.2.45.45.45.45-.2.45-.45-.2-.45-.45-.45ZM10,7.5c-1.38,0-2.5,1.12-2.5,2.5s1.12,2.5,2.5,2.5,2.5-1.12,2.5-2.5-1.12-2.5-2.5-2.5ZM10,7.95c1.13,0,2.05.91,2.05,2.05s-.91,2.05-2.05,2.05-2.05-.91-2.05-2.05.91-2.05,2.05-2.05Z"/>
      </g>
    </g>
  </g>
</svg>