<?xml version="1.0" encoding="UTF-8"?>
<svg xmlns="http://www.w3.org/2000/svg" version="1.1" viewBox="0 0 600 55">
  <defs>
    <style>
      .cls-1 {
        fill: #fff;
      }

      .cls-2 {
        fill: #f47b20;
      }

      .cls-3 {
        fill: #283a97;
      }
    </style>
  </defs>
  <!-- Generator: Adobe Illustrator 28.7.5, SVG Export Plug-In . SVG Version: 1.2.0 Build 176)  -->
  <g>
    <g id="Layer_1">
      <g>
        <rect class="cls-1" width="600" height="55"/>
        <g>
          <path class="cls-3" d="M476.12,43.28c29.32-4.39,59.05-5.2,88.65-5.19,0,0,0,.37,0,.37-22.17.27-44.34,1.54-66.38,3.83-7.34.8-14.67,1.73-21.88,3.09l-.38-2.1h0Z"/>
          <g>
            <g>
              <path class="cls-2" d="M473.47,17.48c-.09.91-.17,1.81-.26,2.72-.19,1.8-.38,3.6-.57,5.4-.19,1.86-.39,3.72-.59,5.6h-4.25c.03-.3.05-.6.09-.9.22-1.93-1.45-3.86-3.94-2.99-1.86.65-2.86,2.91-2.16,4.76.49,1.28,1.73,1.97,3.13,1.75.07-.01.13-.02.23-.03-.12,1.13-.24,2.24-.35,3.36-.63.22-1.29.32-1.95.3-3.26-.1-5.08-2.55-5.41-5.16-.3-2.38.27-4.52,1.85-6.35,1.31-1.52,2.98-2.38,5-2.41,1.65-.03,3.08.5,4,1.99.01.02.04.04.1.09.05-.48.11-.93.15-1.38.23-2.16.45-4.33.67-6.49,0-.08.03-.15.05-.23h4.22Z"/>
              <path class="cls-2" d="M396.4,17.48c-.07.75-.13,1.5-.2,2.24-.23,2.19-.46,4.39-.69,6.58-.23,2.15-.46,4.31-.69,6.46-.15,1.43-.3,2.85-.45,4.33h-4.56v-.12c.02-.05.05-.1.05-.16.3-2.88.6-5.76.91-8.64.33-3.18.67-6.35,1.01-9.52.04-.39.11-.78.17-1.17h4.46Z"/>
              <path class="cls-2" d="M468.66,38.27c-.56-.16-1.07-.39-1.45-.86-.98-1.22-.61-3.11.79-4,1.09-.7,2.49-.64,3.34.14,1,.92,1.04,2.54.09,3.64-.45.52-1,.85-1.67,1.02-.05.01-.1.04-.16.06h-.95Z"/>
              <path class="cls-2" d="M430.41,31.59c-.42,1-.98,1.88-1.7,2.65-1.98,2.12-4.45,3.12-7.32,3.2-1.65.05-3.24-.23-4.7-1.02-2.36-1.28-3.67-3.31-4.11-5.92-.71-4.21,1.38-8.49,5.12-10.55,1.56-.86,3.23-1.27,5-1.31,1.55-.04,3.06.16,4.47.84,2.36,1.14,3.62,3.06,3.99,5.65h-4.37c-.25-.44-.44-.92-.74-1.31-.8-1.04-1.92-1.4-3.18-1.44-3.41-.11-5.71,2.43-6.1,5.32-.15,1.15-.05,2.27.45,3.33.94,1.99,2.86,2.85,4.94,2.64,1.47-.15,2.67-.81,3.58-1.99.05-.07.16-.13.24-.13,1.45,0,2.89,0,4.34,0,.02,0,.04.01.09.03"/>
              <path class="cls-2" d="M446.39,31.49c-.37,1.22.48,2.59,1.75,2.84.7.14,1.4.12,2.08-.13.56-.2.98-.58,1.27-1.1.05-.09.18-.2.28-.2,1.28-.01,2.55,0,3.83,0,.03,0,.06.01.14.03-.12.31-.21.62-.35.9-.71,1.45-1.87,2.41-3.35,3-1.8.72-3.67.83-5.54.35-2.25-.57-3.67-2.02-4.11-4.31-.5-2.58,0-4.95,1.75-6.96,1.21-1.4,2.8-2.14,4.62-2.37,1.52-.19,3.01-.08,4.41.59,1.89.9,2.88,2.43,3.08,4.5.08.88-.06,1.73-.28,2.58-.06.23-.15.29-.38.29-2.95,0-5.9,0-8.85,0h-.34ZM452.11,29.04c.18-1.1-.29-2.08-1.19-2.5-1.2-.56-2.83-.19-3.67.84-.39.48-.6,1.03-.65,1.66h5.5Z"/>
              <path class="cls-2" d="M400.83,37.07h-4.22c.47-4.41.93-8.8,1.4-13.21h4.2c-.06.57-.12,1.15-.18,1.8.1-.12.16-.19.21-.25,1.01-1.27,2.37-1.8,3.94-1.9,1.13-.07,2.22.05,3.18.72,1.1.76,1.49,1.9,1.47,3.18-.02,1.15-.13,2.31-.25,3.46-.19,2.01-.42,4.01-.63,6.02,0,.06-.01.11-.02.18h-4.21c.03-.31.05-.62.08-.93.21-1.97.44-3.93.62-5.9.05-.59.01-1.21-.11-1.79-.17-.85-.8-1.3-1.66-1.35-1.33-.07-2.33.56-2.77,1.87-.23.67-.34,1.4-.42,2.11-.23,1.98-.42,3.97-.63,5.99"/>
              <path class="cls-2" d="M435.51,37.07h-4.22c.47-4.42.93-8.82,1.4-13.23h4.2c-.07.66-.14,1.31-.21,2.05.7-.98,1.57-1.61,2.61-1.99,1.04-.38,2.11-.36,3.24-.19-.24,1.31-.48,2.6-.73,3.92-.36-.05-.69-.13-1.03-.15-1.51-.08-2.86.23-3.79,1.55-.46.66-.72,1.41-.82,2.2-.2,1.6-.36,3.2-.54,4.81-.04.33-.07.67-.11,1.02"/>
            </g>
            <g>
              <path class="cls-3" d="M476.06,36.62l1.87-18.01h6.58c1.06,0,2.01.13,2.83.38s1.5.63,2.03,1.14.91,1.13,1.15,1.89c.23.75.3,1.63.2,2.61-.12,1.12-.4,2.08-.85,2.89-.45.81-1.02,1.47-1.71,2s-1.47.91-2.35,1.16c-.88.25-1.81.37-2.79.37h-2.41l-.58,5.58h-3.96ZM480.92,28.02h2.34c.48,0,.92-.07,1.33-.2.41-.13.78-.33,1.09-.6.32-.27.58-.6.78-.99.2-.4.33-.86.38-1.38.06-.59.03-1.08-.11-1.48s-.34-.72-.61-.97c-.28-.24-.62-.42-1.02-.53-.4-.11-.83-.16-1.3-.16h-2.23l-.66,6.32Z"/>
              <path class="cls-3" d="M492.6,25.15c1.59-1,3.18-1.63,4.77-1.89,1.58-.26,3.09-.15,4.51.31l-.83,2.83c-.37-.07-.76-.12-1.16-.14-.4-.03-.81-.01-1.22.04-.42.05-.83.15-1.25.28-.42.14-.83.34-1.25.61l-.98,9.43h-3.78l1.19-11.47Z"/>
              <path class="cls-3" d="M505.88,31.72c.14.73.48,1.28,1.03,1.66s1.35.56,2.42.56c.32,0,.63-.03.94-.09s.6-.14.89-.23c.29-.09.57-.2.85-.32.27-.12.54-.24.79-.36l.78,2.57c-.78.43-1.6.77-2.46,1.01-.86.25-1.77.37-2.74.37-2.21,0-3.85-.58-4.92-1.73-1.07-1.15-1.49-2.89-1.24-5.2.12-1.14.38-2.14.8-3,.41-.86.95-1.58,1.59-2.15.65-.57,1.4-1,2.25-1.29.85-.29,1.78-.43,2.77-.43.86,0,1.62.12,2.29.36.67.24,1.22.57,1.67.98s.77.89.98,1.43c.21.54.28,1.1.22,1.7-.05.49-.17.99-.37,1.49s-.49.95-.9,1.34-.93.72-1.57.97c-.64.25-1.44.38-2.38.38h-3.69ZM509.14,26.1c-.42,0-.79.07-1.11.22-.33.15-.62.34-.87.59s-.47.54-.65.86c-.18.33-.32.66-.42,1.02h3.15c.27,0,.51-.01.73-.04.22-.03.41-.07.56-.15.15-.07.28-.18.38-.31.1-.13.16-.31.18-.52.03-.3,0-.55-.11-.76-.1-.21-.25-.38-.44-.52s-.41-.24-.65-.3-.49-.09-.74-.09Z"/>
              <path class="cls-3" d="M517.7,25.33c.35-.21.79-.44,1.33-.7.53-.26,1.13-.51,1.78-.74s1.35-.42,2.09-.57c.74-.15,1.5-.23,2.27-.23s1.42.1,1.96.31c.55.21.99.5,1.34.89.74-.34,1.49-.62,2.26-.85.77-.23,1.58-.35,2.42-.35.99,0,1.8.14,2.4.43.61.29,1.07.67,1.38,1.13.32.46.51.99.59,1.59.08.59.08,1.2.02,1.81l-.89,8.58h-3.78l.82-7.89c.03-.29.06-.59.07-.9.02-.31,0-.59-.09-.85-.08-.25-.22-.46-.44-.63s-.55-.25-.99-.25c-.23,0-.48.03-.75.09-.27.06-.53.14-.78.23-.26.09-.5.2-.73.31s-.42.22-.58.32c0,.17,0,.35,0,.52,0,.18-.02.36-.04.55l-.88,8.48h-3.78l.85-8.16c.03-.24.04-.5.05-.77s-.03-.53-.12-.76c-.08-.23-.23-.43-.43-.58-.2-.16-.51-.23-.91-.23-.27,0-.54.03-.82.09-.28.06-.54.13-.79.22-.25.09-.49.18-.7.28-.21.1-.39.19-.53.28l-1,9.65h-3.78l1.17-11.29Z"/>
              <path class="cls-3" d="M540.11,36.62l1.37-13.17h3.78l-1.37,13.17h-3.78ZM543.92,18.01c.76,0,1.31.15,1.64.46.33.31.47.75.41,1.32-.06.54-.27.97-.65,1.28-.38.31-.95.47-1.71.47s-1.34-.15-1.67-.46-.47-.75-.41-1.33c.12-1.16.92-1.74,2.4-1.74Z"/>
              <path class="cls-3" d="M551.04,31.72c.14.73.48,1.28,1.03,1.66s1.35.56,2.42.56c.32,0,.63-.03.94-.09s.6-.14.89-.23c.29-.09.57-.2.85-.32.27-.12.54-.24.79-.36l.78,2.57c-.78.43-1.6.77-2.46,1.01-.86.25-1.77.37-2.74.37-2.21,0-3.85-.58-4.92-1.73-1.07-1.15-1.49-2.89-1.24-5.2.12-1.14.38-2.14.8-3,.41-.86.95-1.58,1.59-2.15.65-.57,1.4-1,2.25-1.29.85-.29,1.78-.43,2.77-.43.86,0,1.62.12,2.29.36.67.24,1.22.57,1.67.98s.77.89.98,1.43c.21.54.28,1.1.22,1.7-.05.49-.17.99-.37,1.49s-.49.95-.9,1.34-.93.72-1.57.97c-.64.25-1.44.38-2.38.38h-3.69ZM554.29,26.1c-.42,0-.79.07-1.11.22-.33.15-.62.34-.87.59s-.47.54-.65.86c-.18.33-.32.66-.42,1.02h3.15c.27,0,.51-.01.73-.04.22-.03.41-.07.56-.15.15-.07.28-.18.38-.31.1-.13.16-.31.18-.52.03-.3,0-.55-.11-.76-.1-.21-.25-.38-.44-.52s-.41-.24-.65-.3-.49-.09-.74-.09Z"/>
              <path class="cls-3" d="M563.17,25.15c1.59-1,3.18-1.63,4.77-1.89,1.59-.26,3.09-.15,4.51.31l-.83,2.83c-.37-.07-.76-.12-1.16-.14-.4-.03-.81-.01-1.22.04-.42.05-.83.15-1.25.28-.42.14-.83.34-1.25.61l-.98,9.43h-3.78l1.19-11.47Z"/>
            </g>
          </g>
        </g>
      </g>
    </g>
  </g>
</svg>