<?xml version="1.0" encoding="UTF-8"?>
<svg xmlns="http://www.w3.org/2000/svg" version="1.1" viewBox="0 0 28 24">
  <defs>
    <style>
      .cls-1 {
        fill: #283a97;
        fill-rule: evenodd;
      }
    </style>
  </defs>
  <!-- Generator: Adobe Illustrator 28.7.5, SVG Export Plug-In . SVG Version: 1.2.0 Build 176)  -->
  <g>
    <g id="Layer_1">
      <path class="cls-1" d="M22.15,3.8C19.99,1.64,17.11.45,14.05.44,7.74.44,2.6,5.58,2.6,11.9c0,2.02.53,3.99,1.53,5.73l-1.62,5.93,6.07-1.59c1.67.91,3.56,1.39,5.47,1.39h0c6.31,0,11.45-5.14,11.45-11.45,0-3.06-1.19-5.94-3.35-8.1h0s0,0,0,0ZM14.05,21.42h0c-1.71,0-3.38-.46-4.84-1.33l-.35-.21-3.6.94.96-3.51-.23-.36c-.95-1.52-1.46-3.27-1.46-5.07,0-5.25,4.27-9.52,9.52-9.52,2.54,0,4.93.99,6.73,2.79,1.8,1.8,2.79,4.19,2.79,6.73,0,5.25-4.27,9.52-9.52,9.52h0s0,0,0,0ZM19.27,14.29c-.29-.14-1.69-.84-1.96-.93-.26-.1-.45-.14-.64.14-.19.29-.74.93-.91,1.12-.17.19-.33.21-.62.07-.29-.14-1.21-.45-2.3-1.42-.85-.76-1.42-1.7-1.59-1.98-.17-.29-.02-.44.13-.58.13-.13.29-.33.43-.5s.19-.29.29-.48c.1-.19.05-.36-.02-.5-.07-.14-.64-1.55-.88-2.12-.23-.56-.47-.48-.64-.49-.17,0-.36,0-.55,0s-.5.07-.76.36c-.26.29-1,.98-1,2.39s1.03,2.77,1.17,2.96c.14.19,2.02,3.08,4.89,4.32.68.29,1.22.47,1.63.6.69.22,1.31.19,1.8.11.55-.08,1.69-.69,1.93-1.36.24-.67.24-1.24.17-1.36-.07-.12-.26-.19-.55-.33h0s0,0,0,0Z"/>
    </g>
  </g>
</svg>