<?xml version="1.0" encoding="UTF-8"?>
<svg xmlns="http://www.w3.org/2000/svg" version="1.1" viewBox="0 0 20 20">
  <defs>
    <style>
      .cls-1 {
        fill: #fff;
      }

      .cls-2 {
        fill: #404040;
      }
    </style>
  </defs>
  <!-- Generator: Adobe Illustrator 28.7.5, SVG Export Plug-In . SVG Version: 1.2.0 Build 176)  -->
  <g>
    <g id="Layer_1">
      <g>
        <circle class="cls-1" cx="10" cy="10" r="10"/>
        <path class="cls-2" d="M15.47,7.32c-.1-.56-.59-.97-1.15-1.1-.84-.18-2.4-.31-4.08-.31s-3.27.13-4.11.31c-.56.13-1.05.51-1.15,1.1-.1.64-.2,1.53-.2,2.68s.1,2.04.23,2.68c.1.56.59.97,1.15,1.1.89.18,2.42.31,4.11.31s3.22-.13,4.11-.31c.56-.13,1.05-.51,1.15-1.1.1-.64.23-1.56.26-2.68-.05-1.15-.18-2.04-.31-2.68ZM8.86,11.79v-3.57l3.11,1.79-3.11,1.79Z"/>
      </g>
    </g>
  </g>
</svg>